HIERARCHY
ROOT Hips
{
	OFFSET 0.000000 0.000000 0.000000
	CHANNELS 6 Xposition Yposition Zposition Xrotation Yrotation Zrotation
	JOINT LeftUpLeg_virtual
	{
		OFFSET 0.000000 0.000000 0.000000
		CHANNELS 3 Xrotation Yrotation Zrotation
		JOINT LeftUpLeg
		{
			OFFSET 11.394100 -6.187798 -0.413800
			CHANNELS 3 Xrotation Yrotation Zrotation
			JOINT LeftLeg
			{
				OFFSET 0.430247 -32.302673 3.732800
				CHANNELS 3 Xrotation Yrotation Zrotation
				JOINT LeftFoot
				{
					OFFSET -0.430247 -48.264931 -6.423300
					CHANNELS 3 Xrotation Yrotation Zrotation
					JOINT LeftToeBase
					{
						OFFSET 4.230900 -16.068199 23.438400
						CHANNELS 3 Xrotation Yrotation Zrotation
						JOINT LeftToe_End
						{
							OFFSET 4.510700 0.695400 19.974600
							CHANNELS 3 Xrotation Yrotation Zrotation
							End Site
							{
								OFFSET 0 0 0
							}
						}
					}
				}
			}
		}
	}
	JOINT RightUpLeg_virtual
	{
		OFFSET 0.000000 0.000000 0.000000
		CHANNELS 3 Xrotation Yrotation Zrotation
		JOINT RightUpLeg
		{
			OFFSET -11.333700 -6.187798 -0.413800
			CHANNELS 3 Xrotation Yrotation Zrotation
			JOINT RightLeg
			{
				OFFSET -0.430392 -32.302628 3.733000
				CHANNELS 3 Xrotation Yrotation Zrotation
				JOINT RightFoot
				{
					OFFSET 0.430392 -48.264973 -6.423500
					CHANNELS 3 Xrotation Yrotation Zrotation
					JOINT RightToeBase
					{
						OFFSET -4.230900 -16.068199 23.438400
						CHANNELS 3 Xrotation Yrotation Zrotation
						JOINT RightToe_End
						{
							OFFSET -4.510700 0.695400 19.974600
							CHANNELS 3 Xrotation Yrotation Zrotation
							End Site
							{
								OFFSET 0 0 0
							}
						}
					}
				}
			}
		}
	}
	JOINT Spine_virtual
	{
		OFFSET 0.000000 0.000000 0.000000
		CHANNELS 3 Xrotation Yrotation Zrotation
		JOINT Spine
		{
			OFFSET -0.002400 12.777504 0.315300
			CHANNELS 3 Xrotation Yrotation Zrotation
			JOINT Spine1
			{
				OFFSET -0.002067 5.816869 0.032633
				CHANNELS 3 Xrotation Yrotation Zrotation
				JOINT Spine1_split
				{
					OFFSET -0.002067 5.816869 0.032633
					CHANNELS 3 Xrotation Yrotation Zrotation
					JOINT Spine2
					{
						OFFSET -0.002067 5.816869 0.032633
						CHANNELS 3 Xrotation Yrotation Zrotation
						JOINT Neck_virtual
						{
							OFFSET 0.000000 0.000000 0.000000
							CHANNELS 3 Xrotation Yrotation Zrotation
							JOINT Neck
							{
								OFFSET -0.003700 21.199493 -0.826900
								CHANNELS 3 Xrotation Yrotation Zrotation
								JOINT Head
								{
									OFFSET 0.000000 20.442200 4.834800
									CHANNELS 3 Xrotation Yrotation Zrotation
									JOINT HeadTop_End
									{
										OFFSET 0.000000 34.668396 4.968400
										CHANNELS 3 Xrotation Yrotation Zrotation
										End Site
										{
											OFFSET 0 0 0
										}
									}
								}
							}
						}
						JOINT LeftShoulder_virtual
						{
							OFFSET 0.000000 0.000000 0.000000
							CHANNELS 3 Xrotation Yrotation Zrotation
							JOINT LeftShoulder
							{
								OFFSET 3.288150 8.794197 -1.372250
								CHANNELS 3 Xrotation Yrotation Zrotation
								JOINT LeftShoulder_split
								{
									OFFSET 3.288150 8.794197 -1.372250
									CHANNELS 3 Xrotation Yrotation Zrotation
									JOINT LeftArm
									{
										OFFSET 11.953299 -2.279007 -0.146200
										CHANNELS 3 Xrotation Yrotation Zrotation
										JOINT LeftForeArm
										{
											OFFSET 18.448900 0.000000 0.000000
											CHANNELS 3 Xrotation Yrotation Zrotation
											JOINT LeftHand
											{
												OFFSET 29.527798 0.000000 0.000000
												CHANNELS 3 Xrotation Yrotation Zrotation
												End Site
												{
													OFFSET 0 0 0
												}
											}
										}
									}
								}
							}
						}
						JOINT RightShoulder_virtual
						{
							OFFSET 0.000000 0.000000 0.000000
							CHANNELS 3 Xrotation Yrotation Zrotation
							JOINT RightShoulder
							{
								OFFSET -3.249400 8.794197 -1.372250
								CHANNELS 3 Xrotation Yrotation Zrotation
								JOINT RightShoulder_split
								{
									OFFSET -3.249400 8.794197 -1.372250
									CHANNELS 3 Xrotation Yrotation Zrotation
									JOINT RightArm
									{
										OFFSET -11.953299 -2.279007 -0.146200
										CHANNELS 3 Xrotation Yrotation Zrotation
										JOINT RightForeArm
										{
											OFFSET -18.448900 0.000000 0.000000
											CHANNELS 3 Xrotation Yrotation Zrotation
											JOINT RightHand
											{
												OFFSET -29.527802 0.000000 0.000000
												CHANNELS 3 Xrotation Yrotation Zrotation
												End Site
												{
													OFFSET 0 0 0
												}
											}
										}
									}
								}
							}
						}
					}
				}
			}
		}
	}
}
MOTION
Frames: 10
Frame Time: 0.03333333
-0.651079 132.710266 314.648102 0.000000 0.000000 0.000000 8.148415 -36.571497 20.032733 -106.210193 -24.195124 12.983157 101.705922 13.739095 6.486201 3.683783 0.770604 6.862652 1.268337 -2.454963 -0.300028 0.000000 0.000000 0.000000 8.148415 -36.571497 20.032733 -109.986085 -25.001703 -6.491578 100.151317 19.060164 6.750013 18.126706 5.542331 13.465983 1.921284 0.153605 -1.387463 0.000000 0.000000 0.000000 8.148415 -36.571497 20.032733 36.283307 5.331440 -27.620131 10.417177 4.343069 -5.637414 0.000000 0.000000 0.000000 0.000000 0.000000 0.000000 17.590075 -0.300818 0.846441 -11.986770 17.712574 -13.403266 -38.648690 -7.453903 1.396197 0.000000 0.000000 0.000000 17.590075 -0.300818 0.846441 3.732749 -8.938839 -0.897981 0.000000 0.000000 0.000000 -82.664038 -0.098876 -10.383352 13.290172 -62.155104 9.886088 0.000000 0.000000 0.000000 17.590075 -0.300818 0.846441 7.302796 26.569088 -6.881553 0.000000 0.000000 0.000000 -60.118191 -8.940511 34.394118 -76.312720 20.173452 58.156609 0.000000 0.000000 0.000000 
-0.334976 131.234833 325.194763 0.000000 0.000000 0.000000 10.799994 -35.601767 20.665984 -101.044384 -21.443025 13.948282 94.898177 14.308441 7.621381 1.123528 0.961485 3.309026 1.286335 -2.336821 -0.314109 0.000000 0.000000 0.000000 10.799994 -35.601767 20.665984 -99.527160 -18.680368 -4.204495 78.346470 19.593931 15.828482 11.678813 3.224468 15.990212 1.393558 0.110566 -1.006162 0.000000 0.000000 0.000000 10.799994 -35.601767 20.665984 35.125921 5.850732 -26.310862 11.018715 4.045013 -5.488553 0.000000 0.000000 0.000000 0.000000 0.000000 0.000000 17.963795 -0.390538 0.823576 -10.228573 16.066919 -13.225072 -40.188918 -6.646901 0.502569 0.000000 0.000000 0.000000 17.963795 -0.390538 0.823576 4.292277 -8.864047 -0.877261 0.000000 0.000000 0.000000 -82.115300 -1.901185 -7.653574 1.787013 -62.124436 -0.712153 0.000000 0.000000 0.000000 17.963795 -0.390538 0.823576 6.167933 25.450309 -4.367979 0.000000 0.000000 0.000000 -52.538276 -9.038834 35.874390 -76.979128 21.195534 61.458951 0.000000 0.000000 0.000000 
-0.182800 129.090485 335.824371 0.000000 0.000000 0.000000 12.983869 -34.480868 21.016009 -95.795049 -18.184257 15.505981 87.306968 14.342251 8.312028 -1.858502 1.026100 1.692044 1.293985 -2.206953 -0.350432 0.000000 0.000000 0.000000 12.983869 -34.480868 21.016009 -86.858717 -6.887423 -1.499962 57.525315 10.438449 22.521108 12.693143 3.052453 17.473711 0.876040 0.068431 -0.632413 0.000000 0.000000 0.000000 12.983869 -34.480868 21.016009 33.287152 6.580804 -24.949522 11.496448 3.678319 -5.173558 0.000000 0.000000 0.000000 0.000000 0.000000 0.000000 18.093507 -0.544867 0.872987 -7.085758 14.137226 -13.131161 -41.181345 -5.490140 0.017712 0.000000 0.000000 0.000000 18.093507 -0.544867 0.872987 4.628201 -8.537112 -0.869790 0.000000 0.000000 0.000000 -81.008543 -2.194266 -5.076138 -6.354820 -62.591321 -8.346968 0.000000 0.000000 0.000000 18.093507 -0.544867 0.872987 5.022796 23.984199 -1.773811 0.000000 0.000000 0.000000 -43.895310 -8.087571 37.705154 -77.297763 22.755457 63.861859 0.000000 0.000000 0.000000 
-0.027058 126.223976 346.520538 0.000000 0.000000 0.000000 14.537602 -33.354563 21.139492 -90.053695 -14.391314 18.909495 78.345985 13.070670 7.003469 -3.855373 0.900654 1.919127 1.290808 -2.067487 -0.405679 0.000000 0.000000 0.000000 14.537602 -33.354563 21.139492 -70.355327 -2.875344 -2.732941 38.086105 0.581714 20.709690 18.741546 4.872683 13.634932 0.430280 0.032509 -0.310693 0.000000 0.000000 0.000000 14.537602 -33.354563 21.139492 30.886382 7.439314 -23.596668 11.713079 3.176388 -4.686057 0.000000 0.000000 0.000000 0.000000 0.000000 0.000000 17.875811 -0.844345 1.048169 -2.988641 12.378942 -13.920039 -41.400140 -4.642145 0.697938 0.000000 0.000000 0.000000 17.875811 -0.844345 1.048169 4.796417 -8.021115 -0.872281 0.000000 0.000000 0.000000 -79.561541 -1.516592 -2.435007 -7.619631 -63.651441 -10.006784 0.000000 0.000000 0.000000 17.875811 -0.844345 1.048169 3.988547 22.412170 0.811414 0.000000 0.000000 0.000000 -35.075760 -6.535786 39.823275 -76.992597 24.850038 64.975111 0.000000 0.000000 0.000000 
0.174547 122.470131 357.467133 0.000000 0.000000 0.000000 15.197188 -32.123479 21.237693 -83.634259 -9.722966 22.482778 68.056825 12.359916 3.796960 -6.188784 0.571265 3.341309 1.273282 -1.920476 -0.476246 0.000000 0.000000 0.000000 15.197188 -32.123479 21.237693 -48.928948 -9.151992 -2.001375 12.232328 -3.723181 9.946679 32.054812 8.860992 5.186773 0.068739 0.006499 0.023103 0.000000 0.000000 0.000000 15.197188 -32.123479 21.237693 28.060681 8.014599 -22.323225 11.535648 2.472322 -4.020044 0.000000 0.000000 0.000000 0.000000 0.000000 0.000000 17.210786 -1.369462 1.402800 3.983990 10.776988 -16.840917 -41.484325 -4.326150 3.279956 0.000000 0.000000 0.000000 17.210786 -1.369462 1.402800 4.221623 -6.838399 -0.874599 0.000000 0.000000 0.000000 -75.790661 1.978781 0.776831 -19.944106 -65.992434 -22.456386 0.000000 0.000000 0.000000 17.210786 -1.369462 1.402800 3.131654 20.988251 3.319573 0.000000 0.000000 0.000000 -26.839375 -5.358345 42.259456 -75.779555 27.840763 64.805450 0.000000 0.000000 0.000000 
0.128874 114.756241 369.781860 0.000000 0.000000 0.000000 12.558091 -29.721179 20.772159 -79.307772 -6.201621 22.553954 62.450428 13.735028 1.185260 -9.471819 0.647500 1.663488 1.242552 -1.768657 -0.558241 0.000000 0.000000 0.000000 12.558091 -29.721179 20.772159 -36.033691 -6.993838 -6.171669 3.047862 1.569159 6.149569 36.581899 7.778745 0.637714 -0.129045 0.079889 0.343385 0.000000 0.000000 0.000000 12.558091 -29.721179 20.772159 23.866749 7.153664 -20.600641 10.122858 1.132080 -2.867447 0.000000 0.000000 0.000000 0.000000 0.000000 0.000000 15.031054 -2.636505 2.139117 9.726153 10.285141 -17.977867 -39.193733 -1.356238 3.759573 0.000000 0.000000 0.000000 15.031054 -2.636505 2.139117 3.368184 -5.546164 -0.904589 0.000000 0.000000 0.000000 -72.385361 6.257794 3.733888 -24.328977 -68.060083 -28.126751 0.000000 0.000000 0.000000 15.031054 -2.636505 2.139117 2.281996 19.232008 5.889421 0.000000 0.000000 0.000000 -15.201670 -7.778560 46.102189 -77.590778 36.538278 71.529921 0.000000 0.000000 0.000000 
0.404310 107.012436 382.142090 0.000000 0.000000 0.000000 8.869644 -27.878495 17.668707 -73.387200 -2.769332 24.249980 54.077941 13.828365 -1.596934 -10.044877 1.060065 -1.486005 1.194676 -1.613786 -0.649274 0.000000 0.000000 0.000000 8.869644 -27.878495 17.668707 -25.049058 -2.215234 -8.763724 7.338976 5.583761 5.600059 18.545142 4.445274 -5.383221 -6.121939 0.755213 -5.614325 0.000000 0.000000 0.000000 8.869644 -27.878495 17.668707 22.271205 6.386401 -15.117889 7.937683 0.045566 -2.410772 0.000000 0.000000 0.000000 0.000000 0.000000 0.000000 12.030244 -4.011771 2.064379 13.332102 10.918023 -19.688090 -35.779560 1.182525 3.164855 0.000000 0.000000 0.000000 12.030244 -4.011771 2.064379 2.523279 -4.779906 -1.181540 0.000000 0.000000 0.000000 -70.763014 9.764329 4.018165 -25.702284 -70.616281 -30.726057 0.000000 0.000000 0.000000 12.030244 -4.011771 2.064379 1.521621 17.173583 8.444755 0.000000 0.000000 0.000000 -3.318295 -12.593847 47.448320 -86.117218 41.088048 85.670182 0.000000 0.000000 0.000000 
1.267290 100.435791 394.212189 0.000000 0.000000 0.000000 5.867601 -30.326217 11.211068 -67.221547 -1.006196 29.383966 47.417649 18.295422 -3.139580 -12.913408 1.440524 -3.351626 1.125044 -1.459029 -0.745121 0.000000 0.000000 0.000000 5.867601 -30.326217 11.211068 -22.043080 9.218209 -4.758477 25.176110 2.661607 5.925907 -7.171688 0.866528 -7.125782 -0.039800 0.190486 -0.061866 0.000000 0.000000 0.000000 5.867601 -30.326217 11.211068 24.200190 7.861771 -7.908906 5.822839 0.905690 -2.248412 0.000000 0.000000 0.000000 0.000000 0.000000 0.000000 9.006415 -3.701017 1.106207 10.187362 12.030369 -21.345127 -31.056494 2.518965 -0.242731 0.000000 0.000000 0.000000 9.006415 -3.701017 1.106207 1.588701 -4.252607 -1.718074 0.000000 0.000000 0.000000 -70.046786 15.662626 2.946005 -46.192279 -77.927063 -52.782534 0.000000 0.000000 0.000000 9.006415 -3.701017 1.106207 0.940738 15.068936 10.876115 0.000000 0.000000 0.000000 6.015612 -18.355286 45.873927 -94.799447 45.000674 97.976509 0.000000 0.000000 0.000000 
2.465911 96.761993 406.236389 0.000000 0.000000 0.000000 0.550315 -34.462515 2.068941 -57.627037 0.707013 32.844952 40.753734 26.666689 -3.158579 -11.253018 2.234894 -4.118663 0.949975 -1.285893 -0.900336 0.000000 0.000000 0.000000 0.550315 -34.462515 2.068941 -15.645725 15.039998 -0.911916 33.500104 3.079445 6.631684 -18.644934 -1.652948 -4.186531 -0.037480 0.190112 -0.074587 0.000000 0.000000 0.000000 0.550315 -34.462515 2.068941 30.908525 10.866010 -2.767852 3.128998 2.729839 -1.243617 0.000000 0.000000 0.000000 0.000000 0.000000 0.000000 5.414657 -2.148756 0.592145 5.196939 12.287398 -21.255871 -25.505251 2.913260 -5.096174 0.000000 0.000000 0.000000 5.414657 -2.148756 0.592145 0.795235 -4.363349 -2.293103 0.000000 0.000000 0.000000 -69.484662 21.648047 -1.690574 -106.680854 -80.671357 -114.845669 0.000000 0.000000 0.000000 5.414657 -2.148756 0.592145 0.537277 12.958307 13.149374 0.000000 0.000000 0.000000 12.241152 -23.373006 43.053018 -98.125141 49.087050 101.661328 0.000000 0.000000 0.000000 
2.734710 95.043541 419.059357 0.000000 0.000000 0.000000 -1.073536 -32.868335 -0.851874 -47.974477 5.972579 27.161991 26.740611 31.058755 -1.374008 4.149323 2.262505 0.663376 0.594515 -1.076299 -1.165415 0.000000 0.000000 0.000000 -1.073536 -32.868335 -0.851874 -2.368693 10.885664 -5.928048 28.958701 5.069147 6.287405 -25.809051 -0.507241 -1.058271 -0.532605 0.195875 -0.241295 0.000000 0.000000 0.000000 -1.073536 -32.868335 -0.851874 31.886902 11.373881 -3.732566 0.563001 3.040593 0.728153 0.000000 0.000000 0.000000 0.000000 0.000000 0.000000 1.964001 -1.750250 1.624909 4.869173 10.636522 -19.558141 -20.261008 1.621255 -6.032473 0.000000 0.000000 0.000000 1.964001 -1.750250 1.624909 0.102306 -5.041694 -2.872951 0.000000 0.000000 0.000000 -67.059009 24.439228 -10.097604 -168.474143 -76.800006 -177.247370 0.000000 0.000000 0.000000 1.964001 -1.750250 1.624909 0.294551 10.964305 14.981994 0.000000 0.000000 0.000000 19.505849 -26.487424 45.316359 -94.030374 54.785104 95.894620 0.000000 0.000000 0.000000 
